HIERARCHY
ROOT mixamorig:Hips
{
	OFFSET 0.000000 201.639420 0.000000
	CHANNELS 6 Xposition Yposition Zposition Xrotation Yrotation Zrotation
	JOINT mixamorig:Spine
	{
		OFFSET 0.006200 19.524994 -2.481800
		CHANNELS 3 Xrotation Yrotation Zrotation
		JOINT mixamorig:Spine1
		{
			OFFSET -0.000900 22.835007 -2.825400
			CHANNELS 3 Xrotation Yrotation Zrotation
			JOINT mixamorig:Spine2
			{
				OFFSET -0.020600 26.552490 -3.193300
				CHANNELS 3 Xrotation Yrotation Zrotation
				JOINT mixamorig:Neck
				{
					OFFSET -0.060000 30.701813 1.352200
					CHANNELS 3 Xrotation Yrotation Zrotation
					JOINT mixamorig:Head
					{
						OFFSET -0.087200 22.547607 3.670900
						CHANNELS 3 Xrotation Yrotation Zrotation
						JOINT mixamorig:HeadTop_End
						{
							OFFSET -0.830600 40.355194 7.893500
							CHANNELS 3 Xrotation Yrotation Zrotation
							End Site
							{
								OFFSET 0.000000 30.592346 0.000000
							}
						}
						JOINT mixamorig:RightEye
						{
							OFFSET -6.302100 18.118591 16.197100
							CHANNELS 3 Xrotation Yrotation Zrotation
							End Site
							{
								OFFSET 0.000000 30.592346 0.000000
							}
						}
						JOINT mixamorig:LeftEye
						{
							OFFSET 6.741500 18.382690 16.401899
							CHANNELS 3 Xrotation Yrotation Zrotation
							End Site
							{
								OFFSET 0.000000 30.592346 0.000000
							}
						}
					}
				}
				JOINT mixamorig:LeftShoulder
				{
					OFFSET 11.924900 18.230499 1.425400
					CHANNELS 3 Xrotation Yrotation Zrotation
					JOINT mixamorig:LeftArm
					{
						OFFSET 25.435989 -0.697632 -5.229300
						CHANNELS 3 Xrotation Yrotation Zrotation
						JOINT mixamorig:LeftForeArm
						{
							OFFSET 54.684776 0.000000 0.000000
							CHANNELS 3 Xrotation Yrotation Zrotation
							JOINT mixamorig:LeftHand
							{
								OFFSET 55.098175 0.000000 0.000000
								CHANNELS 3 Xrotation Yrotation Zrotation
								JOINT mixamorig:LeftHandMiddle1
								{
									OFFSET 23.369751 0.000000 0.000000
									CHANNELS 3 Xrotation Yrotation Zrotation
									JOINT mixamorig:LeftHandMiddle2
									{
										OFFSET 6.378677 0.000000 0.000000
										CHANNELS 3 Xrotation Yrotation Zrotation
										JOINT mixamorig:LeftHandMiddle3
										{
											OFFSET 6.148331 0.000000 0.000000
											CHANNELS 3 Xrotation Yrotation Zrotation
											JOINT mixamorig:LeftHandMiddle4
											{
												OFFSET 6.582504 0.000000 0.000000
												CHANNELS 3 Xrotation Yrotation Zrotation
												End Site
												{
													OFFSET -1.168900 6.395691 1.028606
												}
											}
										}
									}
								}
								JOINT mixamorig:LeftHandThumb1
								{
									OFFSET 7.235672 -3.848206 5.434273
									CHANNELS 3 Xrotation Yrotation Zrotation
									JOINT mixamorig:LeftHandThumb2
									{
										OFFSET 6.568451 -3.792297 3.792300
										CHANNELS 3 Xrotation Yrotation Zrotation
										JOINT mixamorig:LeftHandThumb3
										{
											OFFSET 6.063080 -3.500519 3.500518
											CHANNELS 3 Xrotation Yrotation Zrotation
											JOINT mixamorig:LeftHandThumb4
											{
												OFFSET 4.793182 -2.767334 2.767349
												CHANNELS 3 Xrotation Yrotation Zrotation
												End Site
												{
													OFFSET 0.101639 6.054260 1.275483
												}
											}
										}
									}
								}
								JOINT mixamorig:LeftHandIndex1
								{
									OFFSET 23.101074 -0.309540 4.992809
									CHANNELS 3 Xrotation Yrotation Zrotation
									JOINT mixamorig:LeftHandIndex2
									{
										OFFSET 6.226883 0.000000 0.000000
										CHANNELS 3 Xrotation Yrotation Zrotation
										JOINT mixamorig:LeftHandIndex3
										{
											OFFSET 6.094330 0.000000 0.000000
											CHANNELS 3 Xrotation Yrotation Zrotation
											JOINT mixamorig:LeftHandIndex4
											{
												OFFSET 5.482605 0.000000 0.000000
												CHANNELS 3 Xrotation Yrotation Zrotation
												End Site
												{
													OFFSET -1.427902 5.233032 0.797164
												}
											}
										}
									}
								}
								JOINT mixamorig:LeftHandRing1
								{
									OFFSET 22.299240 0.021149 -3.964172
									CHANNELS 3 Xrotation Yrotation Zrotation
									JOINT mixamorig:LeftHandRing2
									{
										OFFSET 6.321869 0.000000 0.000000
										CHANNELS 3 Xrotation Yrotation Zrotation
										JOINT mixamorig:LeftHandRing3
										{
											OFFSET 5.899796 0.000000 0.000000
											CHANNELS 3 Xrotation Yrotation Zrotation
											JOINT mixamorig:LeftHandRing4
											{
												OFFSET 6.517899 0.000000 0.000000
												CHANNELS 3 Xrotation Yrotation Zrotation
												End Site
												{
													OFFSET -1.637299 6.232208 0.980890
												}
											}
										}
									}
								}
								JOINT mixamorig:LeftHandPinky1
								{
									OFFSET 20.463791 -0.302338 -8.562233
									CHANNELS 3 Xrotation Yrotation Zrotation
									JOINT mixamorig:LeftHandPinky2
									{
										OFFSET 6.908646 0.000000 0.000000
										CHANNELS 3 Xrotation Yrotation Zrotation
										JOINT mixamorig:LeftHandPinky3
										{
											OFFSET 4.622849 0.000000 0.000000
											CHANNELS 3 Xrotation Yrotation Zrotation
											JOINT mixamorig:LeftHandPinky4
											{
												OFFSET 5.216080 0.000000 0.000000
												CHANNELS 3 Xrotation Yrotation Zrotation
												End Site
												{
													OFFSET -0.606308 5.116241 0.814926
												}
											}
										}
									}
								}
							}
						}
					}
				}
				JOINT mixamorig:RightShoulder
				{
					OFFSET -12.001300 18.284088 1.348900
					CHANNELS 3 Xrotation Yrotation Zrotation
					JOINT mixamorig:RightArm
					{
						OFFSET -25.308500 -0.751312 -5.164599
						CHANNELS 3 Xrotation Yrotation Zrotation
						JOINT mixamorig:RightForeArm
						{
							OFFSET -54.684429 0.000000 0.000000
							CHANNELS 3 Xrotation Yrotation Zrotation
							JOINT mixamorig:RightHand
							{
								OFFSET -55.150291 0.000000 0.000000
								CHANNELS 3 Xrotation Yrotation Zrotation
								JOINT mixamorig:RightHandMiddle1
								{
									OFFSET -23.317566 0.000000 0.000000
									CHANNELS 3 Xrotation Yrotation Zrotation
									JOINT mixamorig:RightHandMiddle2
									{
										OFFSET -6.378403 0.000000 0.000000
										CHANNELS 3 Xrotation Yrotation Zrotation
										JOINT mixamorig:RightHandMiddle3
										{
											OFFSET -6.148193 0.000000 0.000000
											CHANNELS 3 Xrotation Yrotation Zrotation
											JOINT mixamorig:RightHandMiddle4
											{
												OFFSET -6.583389 0.000000 0.000000
												CHANNELS 3 Xrotation Yrotation Zrotation
												End Site
												{
													OFFSET 1.171692 6.395905 1.029786
												}
											}
										}
									}
								}
								JOINT mixamorig:RightHandThumb1
								{
									OFFSET -7.190521 -3.860474 5.435846
									CHANNELS 3 Xrotation Yrotation Zrotation
									JOINT mixamorig:RightHandThumb2
									{
										OFFSET -6.567429 -3.791718 3.791708
										CHANNELS 3 Xrotation Yrotation Zrotation
										JOINT mixamorig:RightHandThumb3
										{
											OFFSET -6.062469 -3.500153 3.500166
											CHANNELS 3 Xrotation Yrotation Zrotation
											JOINT mixamorig:RightHandThumb4
											{
												OFFSET -4.792618 -2.767029 2.767022
												CHANNELS 3 Xrotation Yrotation Zrotation
												End Site
												{
													OFFSET -0.100327 6.053253 1.276754
												}
											}
										}
									}
								}
								JOINT mixamorig:RightHandIndex1
								{
									OFFSET -23.048981 -0.310791 4.992554
									CHANNELS 3 Xrotation Yrotation Zrotation
									JOINT mixamorig:RightHandIndex2
									{
										OFFSET -6.227539 0.000000 0.000000
										CHANNELS 3 Xrotation Yrotation Zrotation
										JOINT mixamorig:RightHandIndex3
										{
											OFFSET -6.095047 0.000000 0.000000
											CHANNELS 3 Xrotation Yrotation Zrotation
											JOINT mixamorig:RightHandIndex4
											{
												OFFSET -5.484772 0.000000 0.000000
												CHANNELS 3 Xrotation Yrotation Zrotation
												End Site
												{
													OFFSET 1.420593 5.237305 0.797056
												}
											}
										}
									}
								}
								JOINT mixamorig:RightHandRing1
								{
									OFFSET -22.246323 0.020569 -3.963762
									CHANNELS 3 Xrotation Yrotation Zrotation
									JOINT mixamorig:RightHandRing2
									{
										OFFSET -6.322128 0.000000 0.000000
										CHANNELS 3 Xrotation Yrotation Zrotation
										JOINT mixamorig:RightHandRing3
										{
											OFFSET -5.900024 0.000000 0.000000
											CHANNELS 3 Xrotation Yrotation Zrotation
											JOINT mixamorig:RightHandRing4
											{
												OFFSET -6.518356 0.000000 0.000000
												CHANNELS 3 Xrotation Yrotation Zrotation
												End Site
												{
													OFFSET 1.636398 6.232697 0.982186
												}
											}
										}
									}
								}
								JOINT mixamorig:RightHandPinky1
								{
									OFFSET -20.411011 -0.303314 -8.561701
									CHANNELS 3 Xrotation Yrotation Zrotation
									JOINT mixamorig:RightHandPinky2
									{
										OFFSET -6.907349 0.000000 0.000000
										CHANNELS 3 Xrotation Yrotation Zrotation
										JOINT mixamorig:RightHandPinky3
										{
											OFFSET -4.623840 0.000000 0.000000
											CHANNELS 3 Xrotation Yrotation Zrotation
											JOINT mixamorig:RightHandPinky4
											{
												OFFSET -5.218353 0.000000 0.000000
												CHANNELS 3 Xrotation Yrotation Zrotation
												End Site
												{
													OFFSET 0.602097 5.118835 0.816273
												}
											}
										}
									}
								}
							}
						}
					}
				}
			}
		}
	}
	JOINT mixamorig:LeftUpLeg
	{
		OFFSET 18.168400 -13.561905 -0.039000
		CHANNELS 3 Xrotation Yrotation Zrotation
		JOINT mixamorig:LeftLeg
		{
			OFFSET 0.577358 -80.825211 -3.695000
			CHANNELS 3 Xrotation Yrotation Zrotation
			JOINT mixamorig:LeftFoot
			{
				OFFSET -0.577356 -83.370262 -6.520700
				CHANNELS 3 Xrotation Yrotation Zrotation
				JOINT mixamorig:LeftToeBase
				{
					OFFSET 0.750401 -20.798306 25.135401
					CHANNELS 3 Xrotation Yrotation Zrotation
					JOINT mixamorig:LeftToe_End
					{
						OFFSET -0.000500 0.001200 19.917799
						CHANNELS 3 Xrotation Yrotation Zrotation
						End Site
						{
							OFFSET 0.000000 19.917805 0.000000
						}
					}
				}
			}
		}
	}
	JOINT mixamorig:RightUpLeg
	{
		OFFSET -18.162500 -13.585098 -0.041000
		CHANNELS 3 Xrotation Yrotation Zrotation
		JOINT mixamorig:RightLeg
		{
			OFFSET -0.595024 -80.945297 -3.631900
			CHANNELS 3 Xrotation Yrotation Zrotation
			JOINT mixamorig:RightFoot
			{
				OFFSET 0.595024 -83.218193 -6.561200
				CHANNELS 3 Xrotation Yrotation Zrotation
				JOINT mixamorig:RightToeBase
				{
					OFFSET -0.753601 -20.807106 25.115000
					CHANNELS 3 Xrotation Yrotation Zrotation
					JOINT mixamorig:RightToe_End
					{
						OFFSET 0.000299 0.001700 19.918200
						CHANNELS 3 Xrotation Yrotation Zrotation
						End Site
						{
							OFFSET 0.000000 19.918203 0.000000
						}
					}
				}
			}
		}
	}
}
MOTION
Frames: 4
Frame Time: 0.033333
-15.304405 90.301208 5.935568 -8.352832 52.495075 16.387784 11.032371 1.507769 -3.361715 22.096306 2.322712 -5.725605 22.096311 2.322705 -5.725600 6.790166 1.074792 -2.869142 -0.756839 5.357049 -1.437279 -0.000000 -0.000001 0.000001 -0.000000 -0.000001 0.000001 -0.000000 -0.000001 0.000001 -40.268972 1.726485 -12.025426 19.894294 -1.234260 -31.415742 1.315116 -115.822455 1.243037 34.534714 -25.356724 -2.277478 4.366221 6.357451 -42.167006 -0.828146 -2.642842 -34.354766 0.000001 -0.000008 0.000003 0.000001 0.000001 0.000001 -17.676637 18.154233 -23.638568 -8.702058 16.574668 13.686044 -0.000008 0.000005 -0.000002 0.000002 0.000001 -0.000003 0.399373 10.448656 -44.354528 0.175208 0.525946 -30.454885 -0.000000 -0.000000 -0.000002 -0.000001 -0.000001 -0.000001 3.658826 6.871601 -35.417591 -0.954602 -2.909820 -36.635270 0.000003 0.000007 0.000000 -0.000000 -0.000002 0.000001 1.931843 2.192524 -37.688000 -1.275398 -3.959656 -36.047785 -0.000001 -0.000005 0.000003 -0.000003 -0.000001 -0.000000 -12.241748 27.593674 19.065681 -23.905013 18.998308 38.942559 178.931176 101.880591 -178.820896 -4.384246 5.676519 -22.324200 -5.350960 2.245931 63.537377 -0.556566 1.098967 25.248252 0.000000 -0.000008 0.000002 0.000001 -0.000001 0.000002 -4.077035 1.030953 6.322841 18.869507 -11.422780 12.307748 0.000002 -0.000004 0.000002 -0.000001 -0.000000 0.000000 -3.975599 0.950071 58.649113 0.282325 -1.723867 35.461932 -0.000003 -0.000003 -0.000002 -0.000000 -0.000000 -0.000001 -3.727120 -1.845561 59.970359 -1.283719 4.353090 39.426307 -0.000007 -0.000002 -0.000006 -0.000001 0.000000 -0.000003 -6.671599 -5.750594 36.698682 -3.833614 11.064061 55.192054 -0.000000 0.000003 0.000013 -0.000001 -0.000000 -0.000001 -108.558255 9.385360 45.062993 129.627647 -3.567331 -3.216078 -14.317247 -30.478517 27.222139 5.746998 -2.528611 2.527049 -0.000001 -0.000003 0.000000 -71.270476 5.337730 -8.544147 156.428640 5.294236 3.016647 2.304045 9.145885 -14.586800 -47.911369 13.871424 -6.215111 0.000001 0.000000 0.000000 
-14.685987 90.381607 5.929138 -9.026156 51.728847 16.718266 11.028037 1.585508 -3.342322 22.089870 2.427141 -5.719171 22.089867 2.427127 -5.719165 6.971003 1.299132 -2.978061 -0.652640 5.402420 -1.455631 0.000002 -0.000001 0.000001 0.000002 -0.000001 0.000001 0.000002 -0.000001 0.000001 -40.394200 1.696791 -13.511333 22.071417 1.433148 -25.976914 1.099263 -115.849393 0.982783 33.120489 -24.024663 -3.813961 4.331777 6.915019 -39.255846 -0.802412 -2.604784 -33.793143 -0.000000 -0.000007 0.000006 -0.000002 -0.000001 0.000000 -17.507076 18.327691 -23.992076 -9.193545 16.727996 14.413856 -0.000005 0.000004 -0.000007 0.000001 0.000003 -0.000001 -0.026342 10.615191 -41.284580 0.173871 0.524013 -30.314869 0.000002 -0.000000 0.000000 -0.000000 -0.000000 -0.000001 3.611333 7.676333 -31.835734 -0.907340 -2.845369 -35.694791 -0.000001 0.000008 -0.000003 0.000000 -0.000002 0.000001 2.031619 2.520409 -35.305569 -1.194501 -3.848587 -34.866435 -0.000002 -0.000004 0.000002 -0.000002 -0.000000 -0.000000 -12.226156 27.599661 18.879659 -22.408466 19.327936 38.286523 178.973428 103.241642 -178.847055 -2.943454 4.849012 -22.585964 -5.501012 2.282101 63.873614 -0.524762 1.018446 23.612027 0.000000 -0.000008 0.000003 -0.000001 0.000001 -0.000001 -4.332116 0.658003 6.528469 18.894713 -11.467515 12.319464 0.000002 -0.000002 0.000002 -0.000003 -0.000001 0.000001 -4.191578 1.025209 58.933761 0.239635 -1.675620 34.048240 -0.000001 -0.000003 0.000001 0.000001 -0.000001 -0.000002 -3.846229 -1.752757 59.975392 -1.212466 4.267261 38.469944 -0.000007 -0.000002 -0.000006 -0.000001 0.000000 -0.000001 -6.973058 -5.554873 35.723214 -3.721020 11.008847 54.600126 0.000002 0.000003 0.000012 0.000000 -0.000000 -0.000001 -107.475417 8.863379 44.807141 130.059916 -3.570258 -3.214270 -15.391836 -30.135300 26.495583 5.759040 -2.528093 2.526995 -0.000000 0.000002 -0.000000 -69.884344 5.953198 -7.761820 156.332471 5.227011 3.013079 1.605179 9.895457 -14.198956 -48.152909 13.547010 -6.134512 -0.000000 0.000000 0.000002 
-14.147892 90.402878 5.952724 -9.538911 51.005196 16.886306 11.033232 1.652407 -3.341296 22.102666 2.511735 -5.750948 22.102680 2.511743 -5.750955 7.055236 1.544184 -3.098184 -0.541007 5.442015 -1.467490 -0.000000 -0.000000 0.000001 -0.000000 -0.000000 0.000001 -0.000000 -0.000000 0.000001 -40.400344 1.580171 -14.073086 24.195672 3.494172 -23.151997 1.164655 -115.638641 1.019930 33.374941 -22.672528 -4.812100 3.965842 7.545264 -34.139167 -0.761030 -2.541920 -32.872334 0.000001 -0.000009 0.000008 -0.000002 -0.000002 0.000002 -17.315605 18.465391 -24.320980 -9.679627 16.873130 15.136643 -0.000006 0.000008 -0.000003 0.000000 0.000001 -0.000001 -1.346910 10.265525 -35.059375 0.169522 0.518083 -29.869664 -0.000002 0.000000 -0.000000 -0.000004 -0.000001 0.000001 3.530525 8.917121 -27.006206 -0.842824 -2.753532 -34.373972 -0.000002 0.000007 0.000001 -0.000001 0.000001 -0.000001 2.184719 3.057454 -32.051889 -1.114187 -3.732418 -33.653746 -0.000002 -0.000004 0.000001 -0.000001 0.000001 -0.000001 -12.205420 27.617571 18.606158 -21.069626 19.667282 37.899979 179.090224 104.896222 -178.948825 -1.443231 4.035455 -22.054179 -5.648968 2.316141 64.200923 -0.495518 0.938642 22.001137 -0.000001 -0.000005 -0.000002 0.000000 -0.000001 -0.000001 -4.583429 0.292507 6.728170 18.919523 -11.511563 12.331019 0.000005 -0.000001 0.000001 -0.000005 0.000001 -0.000001 -4.405025 1.097429 59.211128 0.198827 -1.626840 32.656449 -0.000001 -0.000004 0.000002 -0.000000 0.000000 -0.000001 -3.963387 -1.661446 59.979532 -1.143783 4.181489 37.528536 -0.000006 -0.000003 -0.000007 -0.000001 -0.000001 -0.000000 -7.263428 -5.350216 34.766660 -3.610652 10.953072 54.017579 0.000001 0.000003 0.000013 0.000000 0.000000 0.000001 -106.584419 8.301683 44.684047 130.480246 -3.563013 -3.211836 -16.304882 -29.879762 25.879787 5.759105 -2.528105 2.526986 -0.000000 0.000000 -0.000002 -68.736107 6.392291 -7.045925 156.263950 5.185341 3.010614 1.000943 10.468762 -13.928809 -48.220774 13.364692 -6.093130 0.000001 0.000000 0.000000 
-13.712851 90.390106 5.958383 -9.939307 50.355064 16.984777 11.052685 1.706101 -3.359140 22.143916 2.575730 -5.814281 22.143914 2.575720 -5.814272 7.089000 1.812769 -3.222916 -0.429382 5.480251 -1.474309 -0.000001 -0.000001 0.000000 -0.000001 -0.000001 0.000000 -0.000001 -0.000001 0.000000 -40.410042 1.406305 -14.639944 26.459002 5.009002 -21.279690 1.205565 -115.682340 1.041711 34.884764 -20.975368 -6.048121 3.540690 8.017953 -29.400245 -0.714214 -2.467936 -31.800661 0.000005 -0.000006 0.000007 -0.000000 0.000001 -0.000001 -17.102584 18.566013 -24.623795 -10.159237 17.010595 15.853376 -0.000006 0.000008 -0.000006 0.000002 0.000000 -0.000005 -2.250439 10.001278 -29.925661 0.161603 0.506779 -29.036842 0.000000 -0.000000 0.000000 0.000000 0.000000 0.000000 3.273127 9.773019 -22.954418 -0.781576 -2.661980 -33.077780 0.000002 0.000008 -0.000001 -0.000004 -0.000001 0.000002 2.280753 3.508781 -29.343831 -1.059443 -3.650508 -32.807256 0.000000 -0.000007 0.000003 0.000001 0.000002 0.000000 -12.180712 27.661143 18.262674 -19.822476 19.955873 37.709273 179.190491 106.883957 -179.031744 0.154668 3.706228 -20.054190 -5.794060 2.348074 64.518254 -0.468917 0.860031 20.422812 -0.000001 -0.000005 -0.000000 0.000000 0.000001 -0.000002 -4.829806 -0.064099 6.921266 18.943810 -11.554711 12.342370 0.000000 -0.000001 0.000001 -0.000006 0.000000 -0.000001 -4.614913 1.166511 59.480279 0.160046 -1.577850 31.292860 -0.000001 -0.000003 -0.000000 0.000001 0.000001 -0.000003 -4.078117 -1.572062 59.982919 -1.077969 4.096261 36.606372 -0.000008 -0.000002 -0.000005 0.000000 0.000001 -0.000002 -7.541372 -5.138327 33.833277 -3.503091 10.897110 53.447064 0.000001 0.000003 0.000011 0.000000 -0.000001 0.000001 -105.866887 7.806740 44.647338 130.844131 -3.552351 -3.209197 -17.039037 -29.669648 25.395608 5.759144 -2.528118 2.526980 -0.000000 -0.000002 -0.000001 -67.859070 6.768641 -6.411115 156.227094 5.154904 3.008578 0.547899 10.940996 -13.719813 -48.193484 13.307100 -6.082440 0.000002 0.000001 0.000000 
